<?xml version="1.0" encoding="utf-8"?>
<!-- Generator: Adobe Illustrator 22.0.0, SVG Export Plug-In . SVG Version: 6.00 Build 0)  -->
<svg version="1.1" xmlns="http://www.w3.org/2000/svg" xmlns:xlink="http://www.w3.org/1999/xlink" x="0px" y="0px"
	 viewBox="0 0 224.9 225" style="enable-background:new 0 0 224.9 225;" xml:space="preserve">
<style type="text/css">
	.st0{fill:#66E3DA;}
	.st1{fill:url(#SVGID_1_);}
	.st2{fill:#005B68;}
	.st3{fill:#FFFFFF;stroke:#B2B2B2;stroke-miterlimit:10;}
	.st4{fill:#E9EBEC;}
	.st5{fill:#B6DCE1;}
	.st6{fill:#7B868C;}
	.st7{fill:url(#SVGID_2_);}
	.st8{opacity:0.47;fill:url(#SVGID_3_);}
	.st9{fill:url(#SVGID_4_);}
	.st10{opacity:0.47;fill:url(#SVGID_5_);}
	.st11{fill:#FFFFFF;}
	.st12{fill:none;}
	.st13{fill:url(#SVGID_6_);}
	.st14{fill:url(#SVGID_7_);}
	.st15{fill:#087F82;}
	.st16{fill:#C1C6C9;}
	.st17{fill:url(#SVGID_8_);}
	.st18{fill:#7D848A;}
	.st19{fill:url(#SVGID_9_);}
	.st20{fill:url(#SVGID_10_);}
	.st21{fill:url(#SVGID_11_);}
	.st22{fill:url(#SVGID_12_);}
	.st23{fill:url(#SVGID_13_);}
	.st24{fill:url(#SVGID_14_);}
	.st25{fill:url(#SVGID_15_);}
	.st26{fill:url(#SVGID_16_);}
	.st27{fill:url(#SVGID_17_);}
	.st28{fill:url(#SVGID_18_);}
	.st29{fill:url(#SVGID_19_);}
	.st30{fill:url(#SVGID_20_);}
	.st31{fill:url(#SVGID_21_);}
	.st32{fill:url(#SVGID_22_);}
	.st33{fill:url(#SVGID_23_);}
	.st34{fill:url(#SVGID_24_);}
	.st35{fill:url(#SVGID_25_);}
	.st36{fill:url(#SVGID_26_);}
	.st37{fill:url(#SVGID_27_);}
	.st38{fill:url(#SVGID_28_);}
	.st39{fill:url(#SVGID_29_);}
	.st40{fill:url(#SVGID_30_);}
	.st41{fill:url(#SVGID_31_);}
	.st42{fill:url(#SVGID_32_);}
	.st43{fill:url(#SVGID_33_);}
	.st44{fill:url(#SVGID_34_);}
	.st45{fill:url(#SVGID_35_);}
	.st46{fill:url(#SVGID_36_);}
	.st47{fill:url(#SVGID_37_);}
	.st48{fill:url(#SVGID_38_);}
	.st49{fill:url(#SVGID_39_);}
	.st50{fill:url(#SVGID_40_);}
	.st51{fill:url(#SVGID_41_);}
	.st52{fill:url(#SVGID_42_);}
	.st53{fill:url(#SVGID_43_);}
	.st54{fill:url(#SVGID_44_);}
	.st55{fill:url(#SVGID_45_);}
	.st56{fill:url(#SVGID_46_);}
	.st57{fill:none;stroke:#FFFFFF;stroke-miterlimit:10;}
</style>
<g id="Capa_1">
</g>
<g id="Capa_3">
	<g>
		<path class="st11" d="M80.2,207.6l-62.9-62.9c-17.8-17.8-17.8-46.6,0-64.4l62.9-62.9c17.8-17.8,46.6-17.8,64.4,0l62.9,62.9
			c17.8,17.8,17.8,46.6,0,64.4l-62.9,62.9C126.9,225.4,98,225.4,80.2,207.6z"/>
		<g>
			<g>
				<path class="st18" d="M96,139.3c0,0.3-0.1,0.5-0.4,0.6c-0.9,0.3-1.7,0.4-2.4,0.4c-2,0-3.4-0.7-4.1-2.2c-1.7,1.5-3.7,2.2-5.9,2.2
					c-2.8,0-5-0.9-6.8-2.6c-1.8-1.7-2.7-3.9-2.7-6.5c0-2.7,0.9-4.8,2.7-6.5c1.8-1.7,4-2.6,6.8-2.6c1.9,0,3.6,0.5,5,1.6v-0.5
					c0-0.4,0.2-0.5,0.5-0.5h3.3c0.4,0,0.5,0.2,0.5,0.5v12c0,0.4,0.1,0.7,0.3,1c0.2,0.2,0.5,0.4,0.9,0.4c0.4,0,0.8,0,1.3-0.1
					c0.4-0.1,0.6,0.1,0.6,0.4L96,139.3z M83.1,136.8c1.5,0,2.7-0.5,3.6-1.6c0.9-1,1.4-2.4,1.4-4c0-1.6-0.5-2.9-1.4-4
					c-0.9-1-2.1-1.6-3.6-1.6c-1.5,0-2.7,0.5-3.7,1.6c-1,1-1.4,2.4-1.4,4c0,1.6,0.5,2.9,1.4,4C80.4,136.3,81.6,136.8,83.1,136.8z"/>
				<path class="st18" d="M103.5,140.4c-1.5,0-2.7-0.4-3.6-1.1c-0.9-0.7-1.4-1.7-1.4-2.9v-21.3c0-0.4,0.2-0.5,0.5-0.5h3.3
					c0.4,0,0.5,0.2,0.5,0.5v20.1c0,0.4,0.1,0.7,0.3,1c0.2,0.2,0.5,0.4,0.9,0.4c0.4,0,0.8,0,1.3-0.1c0.4-0.1,0.6,0.1,0.6,0.4l0.3,2.5
					c0,0.3-0.1,0.5-0.4,0.6C105.1,140.3,104.2,140.4,103.5,140.4z"/>
				<path class="st18" d="M111.1,119c-0.8,0-1.4-0.2-1.9-0.7c-0.5-0.5-0.8-1.1-0.8-1.8c0-0.7,0.3-1.3,0.8-1.8
					c0.5-0.5,1.2-0.7,1.9-0.7c0.7,0,1.4,0.2,1.9,0.7c0.5,0.5,0.8,1.1,0.8,1.8c0,0.7-0.3,1.3-0.8,1.8
					C112.4,118.8,111.8,119,111.1,119z M113.9,140.4c-1.5,0-2.7-0.4-3.6-1.1c-0.9-0.7-1.4-1.7-1.4-2.9v-13.2c0-0.4,0.2-0.5,0.5-0.5
					h3.3c0.4,0,0.5,0.2,0.5,0.5v12c0,0.4,0.1,0.7,0.3,1c0.2,0.2,0.5,0.4,0.9,0.4s0.8,0,1.3-0.1c0.4-0.1,0.6,0.1,0.6,0.4l0.3,2.5
					c0,0.3-0.1,0.5-0.4,0.6C115.4,140.3,114.6,140.4,113.9,140.4z"/>
				<path class="st18" d="M126.5,140.4c-2.4,0-4.4-0.5-5.9-1.5c-1.5-1-2.4-2.4-2.6-4.2c0-0.4,0.1-0.6,0.5-0.6l3,0
					c0.3,0,0.5,0.2,0.6,0.5c0.5,1.6,2,2.4,4.4,2.4c1,0,1.9-0.2,2.5-0.5c0.6-0.4,1-0.8,1-1.4c0-0.7-0.4-1.2-1.2-1.5
					c-0.8-0.3-1.7-0.6-2.8-0.7s-2.2-0.3-3.3-0.6c-1.1-0.2-2.1-0.7-2.8-1.5c-0.8-0.8-1.2-1.8-1.2-3.2c0-1.6,0.7-2.9,2.1-3.9
					c1.4-1,3.2-1.5,5.5-1.5c2.1,0,3.9,0.5,5.3,1.4c1.4,0.9,2.3,2.2,2.5,3.7c0,0.4-0.1,0.6-0.5,0.6h-3c-0.3,0-0.5-0.1-0.6-0.3
					c-0.2-0.6-0.7-1.2-1.3-1.6c-0.7-0.4-1.5-0.6-2.3-0.6c-1,0-1.8,0.2-2.3,0.5c-0.6,0.3-0.9,0.8-0.9,1.3c0,0.6,0.3,1.1,0.8,1.5
					c0.6,0.4,1.2,0.6,2.1,0.7c0.8,0.1,1.7,0.2,2.7,0.4s1.9,0.4,2.7,0.7c0.8,0.3,1.5,0.8,2.1,1.5c0.6,0.7,0.8,1.7,0.8,2.8
					c0,1.7-0.7,3-2.1,4C130.6,139.9,128.8,140.4,126.5,140.4z"/>
				<path class="st18" d="M145.8,140.4c-2.9,0-5.2-0.8-6.9-2.5c-1.7-1.7-2.6-3.9-2.6-6.6c0-2.7,0.9-4.9,2.6-6.6
					c1.7-1.7,4-2.5,6.9-2.5c2.3,0,4.2,0.6,5.7,1.7c1.6,1.1,2.5,2.6,2.9,4.5c0.1,0.4-0.1,0.6-0.5,0.6h-3.4c-0.3,0-0.5-0.2-0.6-0.5
					c-0.3-0.8-0.8-1.4-1.5-1.8c-0.8-0.5-1.7-0.7-2.7-0.7c-1.5,0-2.8,0.5-3.7,1.5c-0.9,1-1.4,2.3-1.4,3.9c0,1.6,0.5,2.9,1.4,3.9
					c0.9,1,2.2,1.5,3.7,1.5c1,0,1.9-0.2,2.7-0.7c0.8-0.5,1.3-1.1,1.5-1.8c0.1-0.3,0.3-0.5,0.6-0.5h3.4c0.4,0,0.5,0.2,0.5,0.6
					c-0.4,1.9-1.4,3.3-2.9,4.5C150,139.9,148.1,140.4,145.8,140.4z"/>
				<path class="st18" d="M173.1,137.9c-1.7,1.7-4.1,2.5-6.9,2.5c-2.9,0-5.2-0.8-6.9-2.5c-1.7-1.7-2.6-3.9-2.6-6.6
					c0-2.7,0.9-4.9,2.6-6.6c1.7-1.7,4.1-2.5,6.9-2.5c2.9,0,5.2,0.8,6.9,2.5c1.7,1.7,2.6,3.9,2.6,6.6
					C175.7,134.1,174.8,136.3,173.1,137.9z M162.4,135.2c1,1,2.2,1.5,3.7,1.5c1.5,0,2.8-0.5,3.7-1.5c1-1,1.4-2.3,1.4-3.9
					c0-1.6-0.5-2.9-1.4-3.9c-1-1-2.2-1.5-3.7-1.5c-1.5,0-2.8,0.5-3.7,1.5c-1,1-1.4,2.3-1.4,3.9C161,132.9,161.5,134.2,162.4,135.2z"
					/>
				<path class="st18" d="M70.2,114.9c0.3,0,0.5,0.2,0.5,0.5v15.4c0,3-0.9,5.3-2.6,7c-1.8,1.7-4.2,2.5-7.3,2.5
					c-2.7,0-4.9-0.7-6.6-2.1c-1.7-1.4-2.7-3.3-2.9-5.6c0-0.4,0.1-0.6,0.5-0.6h3.5c0.3,0,0.5,0.2,0.5,0.5c0.2,1.1,0.8,2.1,1.7,2.7
					c0.9,0.7,2.1,1,3.6,1c1.5,0,2.7-0.5,3.7-1.6c0.9-1,1.4-2.4,1.4-4.1V120c0-1.4-1.5-1.7-2.5-1.8h-0.3c-0.2,0-0.4-0.2-0.4-0.4v-2.4
					c0-0.2,0.2-0.4,0.4-0.4H70.2z"/>
			</g>
			<g>
				<path class="st18" d="M62.9,149.5c1.1,0,2.2,0.5,2.5,1.8h-0.9c-0.3-0.7-0.9-0.9-1.6-0.9c-1.2,0-1.9,0.9-1.9,2
					c0,1.2,0.7,2.1,1.9,2.1c1,0,1.7-0.4,1.8-1.5h-1.8v-0.8h2.7c0.1,1.7-0.8,3.1-2.7,3.1c-1.5,0-2.9-1.1-2.9-2.9
					C60,150.5,61.3,149.5,62.9,149.5z"/>
				<path class="st18" d="M69.8,155.3c-1.6,0-2.9-1.1-2.9-2.9c0-1.8,1.4-2.9,2.9-2.9c1.5,0,2.9,1.1,2.9,2.9
					C72.7,154.1,71.5,155.3,69.8,155.3z M69.9,154.4c1.1,0,1.9-0.7,1.9-2c0-1.3-0.9-2-1.9-2c-1.1,0-1.9,0.7-1.9,2
					C67.9,153.7,68.8,154.4,69.9,154.4z"/>
				<path class="st18" d="M77.9,152.2c0.6,0.2,0.9,0.7,0.9,1.3c0,1-0.7,1.6-1.8,1.6h-2.5v-5.7h2.3c1,0,1.8,0.5,1.8,1.6
					C78.6,151.6,78.4,152,77.9,152.2z M75.5,150.3v1.6h1.3c0.5,0,0.9-0.2,0.9-0.8c0-0.6-0.4-0.8-0.9-0.8H75.5z M75.5,152.7v1.7H77
					c0.5,0,0.9-0.3,0.9-0.8c0-0.3-0.1-0.5-0.3-0.7c-0.2-0.2-0.5-0.2-0.7-0.2H75.5z"/>
				<path class="st18" d="M83,154.4v0.8h-2.7v-0.8h0.9v-4.2h-0.8v-0.8h2.6v0.8h-0.8v4.2H83z"/>
				<path class="st18" d="M88.2,150.4h-2.5v1.5H88v0.8h-2.4v1.7h2.5v0.9h-3.5v-5.7h3.4V150.4z"/>
				<path class="st18" d="M94.7,155.1v0.1h-1l-1.4-2h-1.2v2h-0.9v-5.7h2.3c1.2,0,2,0.8,2,1.8c0,0.8-0.5,1.4-1.2,1.7L94.7,155.1z
					 M92.4,152.4c0.6,0,1.1-0.4,1.1-1.1c0-0.6-0.4-1-1.1-1H91v2.1H92.4z"/>
				<path class="st18" d="M97.2,151.3l0.1,1.8v2.1h-0.9v-5.7h0.3l3.4,3.8l-0.1-1.7v-2.1h0.9v5.7h-0.3L97.2,151.3z"/>
				<path class="st18" d="M105.6,155.3c-1.6,0-2.9-1.1-2.9-2.9c0-1.8,1.4-2.9,2.9-2.9c1.5,0,2.9,1.1,2.9,2.9
					C108.5,154.1,107.4,155.3,105.6,155.3z M105.7,154.4c1.1,0,1.9-0.7,1.9-2c0-1.3-0.9-2-1.9-2c-1.1,0-1.9,0.7-1.9,2
					C103.7,153.7,104.6,154.4,105.7,154.4z"/>
				<path class="st18" d="M115.1,149.5c1.8,0,2.8,1.3,2.8,2.8s-1,2.8-2.8,2.8h-2v-5.7H115.1z M115.1,154.3c1.2,0,1.8-0.9,1.8-2
					c0-1.1-0.7-2-1.8-2H114v3.9H115.1z"/>
				<path class="st18" d="M123.1,150.4h-2.5v1.5h2.4v0.8h-2.4v1.7h2.5v0.9h-3.5v-5.7h3.4V150.4z"/>
				<path class="st18" d="M126,154.3h2.4v0.8h-3.4v-5.7h0.9V154.3z"/>
				<path class="st18" d="M135.9,150.4h-2.5v1.5h2.4v0.8h-2.4v1.7h2.5v0.9h-3.5v-5.7h3.4V150.4z"/>
				<path class="st18" d="M138.4,153.6c0,0.6,0.7,0.8,1.4,0.8c0.6,0,1.3-0.1,1.3-0.8c0-0.7-0.8-0.8-1.4-0.9c-1-0.1-2.1-0.4-2.1-1.6
					c0-1.2,1-1.7,2.1-1.7c1.1,0,2.1,0.5,2.1,1.6h-0.9c0-0.6-0.7-0.8-1.3-0.8c-0.5,0-1.2,0.2-1.2,0.8c0,0.6,0.6,0.7,1.3,0.8
					c1.1,0.1,2.2,0.4,2.2,1.7c0,1.2-1.2,1.7-2.2,1.7c-1.1,0-2.3-0.5-2.3-1.7H138.4z"/>
				<path class="st18" d="M143.2,150.4v-0.8h4.2v0.8h-1.6v4.8h-0.9v-4.8H143.2z"/>
				<path class="st18" d="M149.3,154l-0.5,1.2h-1v-0.1l2.6-5.6h0.4l2.6,5.6v0.1h-1l-0.6-1.2H149.3z M149.7,153.2h2l-1-2.3
					L149.7,153.2z"/>
				<path class="st18" d="M157,149.5c1.8,0,2.8,1.3,2.8,2.8s-1,2.8-2.8,2.8h-2v-5.7H157z M156.9,154.3c1.2,0,1.8-0.9,1.8-2
					c0-1.1-0.7-2-1.8-2h-1.1v3.9H156.9z"/>
				<path class="st18" d="M164.1,155.3c-1.6,0-2.9-1.1-2.9-2.9c0-1.8,1.4-2.9,2.9-2.9c1.5,0,2.9,1.1,2.9,2.9
					C167,154.1,165.8,155.3,164.1,155.3z M164.1,154.4c1.1,0,1.9-0.7,1.9-2c0-1.3-0.9-2-1.9-2c-1.1,0-1.9,0.7-1.9,2
					C162.1,153.7,163,154.4,164.1,154.4z"/>
			</g>
			<g>
				<g>
					<g>
						<path class="st18" d="M112.9,46.3v3.1c0,0,0.6-0.1,1.3,0h0v-3.1C113.5,46.1,112.9,46.3,112.9,46.3z"/>
						<path class="st18" d="M99.8,47.2c0,0.2,0.1,0.4,0.3,0.4c1.4,0.6,2.8,0.9,4.1,0.9c1.9,0,3.7-0.6,5.4-1.7
							c2.2-1.5,5.3-1.6,7.7-0.3c-0.4,0.3-1,0.8-2,0.8h-0.5v1.1h0.5c2.2,0,3.2-1.6,3.3-1.7l0,0c0,0,0,0,0,0l0,0
							c0-0.1,0.1-0.2,0.1-0.3v-6.6c0-0.2-0.1-0.4-0.2-0.5c-2.8-1.9-6.7-1.9-9.4,0c-2.6,1.8-5.6,2-8.4,0.7c-0.3-0.1-0.6,0-0.7,0.2
							c-0.2,0.2-0.1,0.5,0.1,0.7l3.6,3.1l-3.6,2.6C99.9,46.8,99.8,47,99.8,47.2z M104.8,44.5c0.1-0.1,0.2-0.3,0.2-0.4
							c0-0.2-0.1-0.3-0.2-0.4l-2.1-1.8c2.4,0.4,4.8-0.1,6.9-1.6c2.3-1.6,5.6-1.6,8-0.2v5.3c-2.7-1.4-6.1-1.2-8.6,0.5
							c-2.3,1.6-5,1.9-7.5,1.1L104.8,44.5z"/>
						<polygon class="st18" points="112.9,43.6 114.2,43.6 114.2,42.4 115.4,42.4 115.4,41.1 114.2,41.1 114.2,39.9 112.9,39.9 
							112.9,41.1 111.7,41.1 111.7,42.4 112.9,42.4 						"/>
						<path class="st18" d="M140.5,89.3c0.4-0.5,0.8-1,1.2-1.4c1.7-1.9,3.4-3.9,4.5-6.3c1-2.1,1.3-4.2,1.1-6.2
							c-0.5-3.5-2.8-6.4-5.8-7.6c0.5-0.9,0.7-1.9,0.6-2.9l0,0c0-0.2-0.2-0.4-0.4-0.5c-0.2-0.1-0.5,0-0.6,0.1
							c-0.3,0.3-0.7,0.5-1.1,0.6c-0.4,0.1-0.9,0.1-1.3-0.1l-0.1,0c-1.3-0.5-2.7-0.8-4.1-0.8c-0.6,0-1.1,0-1.7,0.1c0,0,0-0.1,0-0.1
							c0-0.4-0.1-0.8-0.2-1.2c-0.1-0.2-0.2-0.3-0.4-0.4c-0.2-0.1-0.4,0-0.5,0c-0.2,0.1-0.5,0.2-0.8,0.2c-0.1,0-0.1,0-0.2,0
							c-0.3,0-0.6,0-0.9,0c-0.4,0-0.9,0-1.3,0.1c-0.4,0.1-0.8,0.1-1.2,0.3c-0.4,0.1-0.8,0.3-1.2,0.4c-0.4,0.2-0.7,0.4-1.1,0.6
							c-0.3,0.2-0.7,0.5-1,0.7c-0.3,0.3-0.6,0.5-0.9,0.8c-0.2,0.2-0.4,0.4-0.5,0.6c-0.2,0.2-0.3,0.4-0.4,0.6
							c-0.3,0.4-0.5,0.9-0.8,1.3c0,0-0.1,0.1-0.1,0.1c0,0,0,0-0.1,0.1c0,0,0,0,0,0.1c0,0,0,0,0,0c0,0,0,0,0,0
							c-0.1,0.1-0.2,0.2-0.3,0.3c-0.1,0.1-0.2,0.2-0.3,0.4c-0.2,0.2-0.3,0.3-0.5,0.5c-0.1,0.1-0.1,0.1-0.2,0.2
							c-0.1,0.1-0.2,0.2-0.4,0.3c0,0-0.1,0.1-0.1,0.1l-1.8-1.3l-0.3-1.8c0.1-0.2,0.2-0.4,0.3-0.6l0.1-0.1c0.1-0.1,0.1-0.2,0.2-0.3
							l0-0.1c0-0.1,0.1-0.2,0.1-0.3c0,0,0-0.1,0-0.1c0,0,0-0.1,0-0.1l0.5-0.1l0.4-3l0,0c0,0,0,0,0,0l-0.6-0.1c0-0.1,0-0.2,0-0.3
							c0-0.1,0-0.3-0.1-0.4c-0.1-0.4-0.2-0.7-0.4-1c0,0,0,0,0-0.1c-0.5-0.9-1.2-1.6-2.2-1.9c0,0,0,0-0.1,0c0,0,0-0.1,0-0.1
							c0-0.1,0.1-0.1,0.1-0.2c0.3-0.8,1-1.4,1.7-1.8c0.1,0.3,0.2,0.6,0.2,0.6c0.1,0.3,0.3,0.4,0.6,0.4c0.1,0,0.3-0.1,0.4-0.2
							c0.2-0.1,0.4-0.4,0.5-0.6c0.7-1.1,0.8-2.6,0.3-3.8c-0.4-1-1.3-1.6-2.3-1.7c-0.3,0-0.6,0-1,0.2c-0.4-1-1.5-1.7-2.7-1.7
							c-1.1,0-2.2,0.7-2.7,1.7c-0.4-0.1-0.7-0.2-1-0.2c-1,0.1-1.9,0.7-2.3,1.7c-0.5,1.2-0.4,2.7,0.3,3.8c0.1,0.2,0.3,0.4,0.5,0.6
							c0.1,0.1,0.3,0.1,0.4,0.2c0.2,0,0.5-0.1,0.6-0.4c0,0,0.1-0.2,0.2-0.6c0.8,0.4,1.4,1.1,1.7,1.8c0,0.1,0.1,0.1,0.1,0.2
							c0,0,0,0.1,0,0.1c0,0-0.1,0-0.1,0c-1,0.3-1.7,1-2.2,1.9c0,0,0,0,0,0.1c-0.2,0.3-0.3,0.7-0.4,1c0,0.1,0,0.2-0.1,0.4
							c0,0.1,0,0.2,0,0.3l-0.6,0.1c0,0,0,0,0,0l0,0l0.4,3l0.5,0.1c0,0,0,0.1,0,0.1c0,0,0,0.1,0,0.1c0,0.1,0.1,0.2,0.1,0.3l0,0.1
							c0.1,0.1,0.1,0.2,0.2,0.3l0.1,0.1c0.1,0.2,0.2,0.4,0.4,0.6l-0.3,1.8l-1.9,1.3c-0.4-0.3-0.7-0.6-1-0.9
							c-0.1-0.1-0.1-0.1-0.2-0.2c-0.2-0.2-0.4-0.5-0.6-0.7c0,0,0,0,0,0c0,0,0-0.1,0-0.1c0,0,0,0-0.1-0.1c0,0-0.1-0.1-0.1-0.1
							c-0.3-0.4-0.5-0.9-0.8-1.3c-0.1-0.2-0.3-0.4-0.4-0.6c-0.2-0.2-0.3-0.4-0.5-0.6c-0.3-0.3-0.6-0.6-0.9-0.8
							c-0.3-0.3-0.7-0.5-1-0.7c-0.4-0.2-0.7-0.4-1.1-0.6c-0.4-0.2-0.8-0.3-1.2-0.4c-0.4-0.1-0.8-0.2-1.2-0.3
							C98.1,63,97.7,63,97.2,63c-0.3,0-0.6,0-0.9,0c-0.1,0-0.1,0-0.2,0c-0.3,0-0.6-0.1-0.8-0.2c-0.2-0.1-0.3-0.1-0.5,0
							c-0.2,0.1-0.3,0.2-0.4,0.4c-0.1,0.4-0.2,0.8-0.2,1.2c0,0,0,0.1,0,0.1c-0.6-0.1-1.3-0.2-1.9-0.2c-1.4,0-2.8,0.3-4.1,0.8l-0.1,0
							c-0.4,0.2-0.9,0.2-1.3,0.1c-0.4-0.1-0.8-0.3-1.1-0.6c-0.2-0.2-0.4-0.2-0.6-0.1c-0.2,0.1-0.4,0.3-0.4,0.5l0,0
							c-0.1,1,0.1,2,0.6,2.9c-3,1.3-5.3,4.1-5.8,7.6c-0.3,2,0.1,4.1,1.1,6.2c1.1,2.4,2.8,4.4,4.5,6.3c0.4,0.5,0.8,0.9,1.2,1.4
							c0.1,0.2,0.3,0.3,0.4,0.5c1,1.2,2.2,2.6,2.2,3.9c0,1.4-0.8,2.2-2.2,2.2c-0.3,0-0.6-0.1-0.9-0.1c-0.1,0-0.2-0.1-0.3-0.1l0,0
							c0,0-1.2-0.1-1.5,0.9c-0.1,0-0.2,0-0.3,0c-0.6,0.2-0.9,0.7-0.9,1.3l0,0.1c0.4,3.5,3.4,6.2,6.9,6.2l0.1,0
							c1.6,0,3.1-0.6,4.3-1.5c0,0,0,0,0,0c0.2,0.2,0.5,0.4,0.9,0.4c0.2,0,0.5-0.1,0.7-0.2c1-0.7,1.7-1.6,2.3-2.6l0,0
							c0-0.1,0.1-0.2,0.1-0.3c0,0.1,0.1,0.1,0.1,0.2c0.1,0.1,0.2,0.3,0.3,0.4c3.1,4.8,8.8,7.7,14.9,7.7c6.1,0,11.9-3,14.9-7.7
							c0.1-0.1,0.2-0.3,0.3-0.4c0-0.1,0.1-0.1,0.1-0.2c0,0.1,0.1,0.2,0.1,0.3l0,0c0.6,1,1.3,1.9,2.3,2.6c0.2,0.2,0.5,0.2,0.7,0.2
							c0.3,0,0.6-0.1,0.9-0.4c0,0,0,0,0,0c1.2,0.9,2.7,1.5,4.3,1.5l0.1,0c3.4,0,6.4-2.7,6.9-6.2l0-0.1c0.1-0.6-0.3-1.1-0.9-1.3
							c-0.1,0-0.2,0-0.3,0c-0.3-1.1-1.5-0.9-1.5-0.9l0,0c-0.1,0-0.2,0-0.3,0.1c-0.3,0.1-0.6,0.1-0.9,0.1c-1.4,0-2.2-0.8-2.2-2.2
							c0-1.3,1.2-2.7,2.2-3.9C140.3,89.7,140.4,89.5,140.5,89.3z M134.5,65.6c1.3,0,2.5,0.2,3.7,0.7l0.1,0c0.7,0.2,1.4,0.3,2,0.1
							c0.2-0.1,0.4-0.1,0.6-0.2c-0.1,0.4-0.3,0.8-0.5,1.2c0,0-1.5-0.3-2.4-0.3c-3.1,0-5.9,1.7-7.4,4.1c-0.1-0.5-0.7-0.9-1.3-0.9
							h-3.6C127.6,67.4,130.9,65.6,134.5,65.6z M135.7,80.5c0,0.1,0.1,0.2,0.1,0.3c0,0,0.8,2.3,3.5,2.3c0,0,0.1,0,0.1,0c0,0,0,0,0,0
							l0,0c-2.6,2.7-6.3,4.1-8.8,6.9v-9.6c0.1-0.1,0.2-0.2,0.3-0.3c0.7-0.7,1.4-1.6,2.1-2.3c1.1-1.1,2.3-2,3.9-2.2
							c0.6-0.1,1.3-0.1,1.9,0.2c0.3,0.2,0.6,0.5,0.7,0.8c0,0,0.5,1.1-0.3,1.9c0,0-0.1,0.1-0.2,0.1c-0.2,0.2-0.5,0.3-0.8,0.3
							c-0.2,0-0.4,0-0.6-0.1c-0.2-0.1-0.5-0.1-0.7-0.1c-0.4,0-0.7,0.2-0.9,0.5C136,79.2,135.5,79.8,135.7,80.5z M117.8,63.7
							l-0.1,1.1l0,0h0v0l-0.6,0.1l-0.6,0.1v-1.6c0.2,0.1,0.5,0.1,0.7,0.2C117.4,63.6,117.6,63.7,117.8,63.7z M113.5,66.9L113.5,66.9
							L113.5,66.9l3.1-0.7l0,0c-0.1,0.2-0.3,0.5-0.4,0.7c-0.1,0.2-0.2,0.3-0.3,0.5c-0.6,0.7-1.4,1.3-2.3,1.3c-1,0-1.7-0.6-2.3-1.3
							c-0.1-0.1-0.2-0.3-0.3-0.5c-0.2-0.2-0.3-0.5-0.4-0.7l0,0L113.5,66.9z M111.7,65.2v-2.1c0.5-0.1,0.9-0.2,1.2-0.3v2.7
							L111.7,65.2z M114.1,65.5v-2.7c0.3,0.1,0.8,0.2,1.2,0.3v2.1L114.1,65.5z M110.1,55.7c0.2-0.4,0.5-0.7,0.9-0.9
							c0,0-1.1,0-2.3,1.1c-0.3-0.7-0.3-1.6,0-2.3c0.2-0.6,0.7-0.9,1.3-0.9c0.4,0,0.8,0.1,1.2,0.3c0.9,0.5,1.6,1.4,1.8,2.4
							c0,0,0.2-1.3-0.8-2.7c-0.1-0.1-0.2-0.3-0.3-0.4c0.2-0.7,0.9-1.2,1.6-1.2s1.4,0.5,1.6,1.2c-0.1,0.1-0.2,0.2-0.3,0.4
							c-1,1.4-0.8,2.7-0.8,2.7c0.2-1,0.9-1.9,1.8-2.4c0.4-0.2,0.9-0.3,1.2-0.3c0.5,0,1,0.4,1.3,0.9c0.3,0.7,0.3,1.6,0,2.3
							c-1.2-1.1-2.3-1.1-2.3-1.1c0.4,0.2,0.7,0.5,0.9,0.9c-1,0.5-1.8,1.4-2.3,2.4c0,0.1-0.1,0.2-0.1,0.2c0,0.1,0,0.1-0.1,0.2
							c-0.3-0.1-0.6-0.3-1-0.5l0,0l0,0c-0.3,0.2-0.6,0.4-1,0.5c0-0.1,0-0.1-0.1-0.2c0-0.1-0.1-0.2-0.1-0.2
							C111.9,57.1,111.1,56.3,110.1,55.7z M111.9,60.1c0.3-0.1,0.6-0.2,0.8-0.3c0.3-0.1,0.5-0.3,0.8-0.4c0.3,0.1,0.5,0.3,0.8,0.4
							c0.3,0.1,0.6,0.2,0.8,0.3c1,0.3,1.6,1.2,1.9,2.2c-3.2-0.8-3.5-0.9-3.5-0.9v0h0c0,0,0,0,0,0h0v0c-0.1,0-0.3,0.1-3.5,0.9
							C110.2,61.3,110.9,60.5,111.9,60.1z M109.4,64.8L109.4,64.8L109.4,64.8L109.4,64.8l-0.1-1.1c0.2,0,0.4-0.1,0.6-0.1
							c0.2-0.1,0.5-0.1,0.7-0.2V65l-0.6-0.1L109.4,64.8z M110.7,69.9l0.2-1c0,0,0.1,0,0.1,0.1c0.7,0.6,1.6,1.1,2.5,1.1l0,0l0,0
							c1,0,1.8-0.4,2.5-1.1c0,0,0,0,0.1-0.1l0.2,1.1l2,1.4c-0.1,0.1-0.2,0.1-0.3,0.2c-0.9,0.5-1.8,0.9-2.8,1.1
							c-0.6,0.1-1.2,0.3-1.8,0.3c-0.5,0-1-0.1-1.5-0.2c-1-0.2-2-0.6-2.8-1.1c-0.1-0.1-0.3-0.2-0.4-0.3L110.7,69.9z M86.5,66.4
							c0.7,0.2,1.4,0.1,2-0.1l0.1,0c1.2-0.5,2.4-0.7,3.7-0.7c3.6,0,6.8,1.8,8.7,4.8h-3.6c-0.6,0-1.2,0.4-1.3,0.9
							c-1.5-2.5-4.3-4.1-7.4-4.1c-0.8,0-2.4,0.3-2.4,0.3c-0.3-0.4-0.4-0.8-0.5-1.2C86.1,66.3,86.3,66.4,86.5,66.4z M97.7,97.2
							c0,0.1,0,0.2,0,0.3c0,0,0,0,0,0.1c0,0.1,0,0.2,0,0.3c0,0,0,0,0,0c-0.1,0.5-0.2,0.9-0.4,1.3c0,0,0,0,0,0.1
							c0,0.1-0.1,0.2-0.1,0.2c0,0.1-0.1,0.1-0.1,0.2c-0.5,0.9-1.2,1.7-2,2.2c0.8-1.1,1.2-2.4,1.2-3.8c0-0.6-0.1-1.2-0.3-1.8l0,0
							c-0.1,1.4-0.5,2.6-1.2,3.7l0,0c-1,1.7-2.9,2.9-5,2.9c0,0-0.1,0-0.1,0c-2.8,0-5.3-2.3-5.6-5.1l0,0l0,0c0,0,0,0,0,0
							c0.8,1.2,2.1,1.9,3.6,1.9c2.3,0,4.1-1.8,4.3-4c-0.3,0.9-1,1.7-1.9,2.2c0,0,0,0-0.1,0c-0.2,0.1-0.5,0.2-0.8,0.3
							c-1.1,0.4-3.1,0.6-4.2-1.6c0.1,0,0.2,0.1,0.3,0.1c0.2,0.1,0.4,0.2,0.6,0.2c0.2,0,0.4,0.1,0.7,0.1c0.2,0,0.4,0,0.6,0
							c0.1,0,0.2,0,0.3,0c0.1,0,0.1,0,0.2,0c0.3-0.1,0.6-0.2,0.9-0.3c0.3-0.1,0.5-0.3,0.7-0.5c0.2-0.2,0.4-0.4,0.5-0.7
							c0.1-0.3,0.3-0.6,0.3-0.9c0.1-0.3,0.1-0.7,0.1-1c0-2-1.7-3.7-2.9-5.1c-2-2.4-4.2-4.6-5.6-7.4c-0.8-1.7-1.2-3.6-1-5.5
							c0.6-4.1,3.9-7.3,8.1-7.3c2.8,0,5.2,1.5,6.5,3.8c0.1,0.2,0.8,1.7,0.8,2.8v3.4c0,0,0,0,0,0c-0.9-1-1.7-2-2.8-2.7
							c-1.6-1.2-4-2-5.9-0.9c-1.6,0.9-2.1,3-1.1,4.5c0,0,1,1.6,3.2,1c0,0-0.7,2.2-3.2,1.2c-0.2-0.1-0.4-0.2-0.5-0.3
							c-0.3-0.2-0.6-0.5-0.9-0.8c-0.1-0.1-0.3-0.3-0.4-0.5c-0.2-0.2-0.3-0.5-0.4-0.7c-0.1-0.3-0.2-0.6-0.3-1c-0.2-1-0.1-2,0.4-2.9
							c0.7-1.4,2-2.5,3.5-2.9c1.5-0.4,3.5-0.2,4.9,0.6c0.2,0.1,0.4,0.3,0.6,0.4c0.2,0.1,0.3,0.2,0.5,0.4c-0.8-1.7-2.9-2.6-4.6-2.6
							c-2-0.1-4,0.9-5.2,2.4c-1.2,1.5-1.6,3.4-1.3,5.2c0.4,2,1.9,3.7,3.2,5.2c2.2,2.7,4.5,5.3,6.2,8.4c0.7,1.2,0.9,2.4,0.9,3.9
							c0,2.7-2.2,5-4.9,5.1l0,0c0.3,0.1,0.6,0.1,0.9,0.1c0.7,0,1.4-0.1,2-0.4c1.1-0.5,2-1.3,2.6-2.4c2.3-4.3-1.3-8.6-3.9-11.7
							c-0.2-0.2-1-1.1-1.3-1.5l2.9,2.1c0.6,0.4,1.2,0.9,1.8,1.3c0.9,0.7,1.7,1.5,2.4,2.3C96.8,92.7,97.8,94.9,97.7,97.2z M87.4,83
							C87.4,83,87.4,83,87.4,83c0.1,0,0.1,0,0.1,0c2.6,0.1,3.5-2.3,3.5-2.3c0-0.1,0.1-0.2,0.1-0.3c0.2-0.7-0.2-1.3-0.2-1.3
							c-0.2-0.3-0.6-0.5-0.9-0.5c-0.2,0-0.5,0-0.7,0.1c-0.2,0.1-0.4,0.1-0.6,0.1c-0.3,0-0.6-0.1-0.8-0.3c-0.1,0-0.1-0.1-0.2-0.1
							c-0.9-0.8-0.3-1.9-0.3-1.9c0.2-0.3,0.4-0.6,0.7-0.8c0.6-0.3,1.2-0.3,1.9-0.2c1.6,0.2,2.8,1.1,3.9,2.2c0.7,0.7,1.4,1.5,2.1,2.3
							c0.1,0.1,0.2,0.2,0.3,0.3v9.6C93.7,87.1,90,85.7,87.4,83L87.4,83z M127.9,97.2C127.9,97.3,127.9,97.3,127.9,97.2
							c0,0.4,0.1,0.8,0.2,1.1c0,0,0,0,0,0c-0.2,0.5-0.4,0.9-0.7,1.3c-0.1,0.1-0.2,0.3-0.2,0.4c-2.7,4.3-7.9,7.1-13.8,7.1
							s-11-2.9-13.8-7.1c-0.1-0.1-0.2-0.3-0.2-0.4c-0.3-0.4-0.5-0.9-0.7-1.3l0,0c0.1-0.4,0.1-0.7,0.2-1.1c0,0,0,0,0-0.1
							c0.1-1.8-0.3-3.7-1.4-5.5c0,0,0,0,0,0V71.5h5.7c-0.7-1.2,0,0-0.7-1.2h0c0,0,0,0,0,0.1c-1.5-2.8-4.1-4.8-7-5.6
							c0-0.1,0-0.3,0-0.4c0-0.1,0-0.1,0-0.2c0.3,0.1,0.6,0.1,1,0.1c0.3,0,0.6,0,0.8,0c0.1,0,0.1,0,0.2,0c0.4,0,0.9,0.1,1.3,0.1
							c0.4,0.1,0.8,0.2,1.2,0.3c0.4,0.1,0.8,0.3,1.1,0.5c0.4,0.2,0.7,0.4,1,0.7c0.3,0.3,0.6,0.5,0.9,0.8c0.3,0.3,0.6,0.6,0.8,1
							c0.3,0.4,0.6,0.9,0.8,1.3c0.3,0.4,0.6,0.8,0.9,1.2c0.2,0.3,0.5,0.5,0.7,0.8c0.1,0.1,0.3,0.2,0.4,0.3c0,0,0,0,0,0
							c0.1,0.1,0.3,0.2,0.4,0.3c0,0,0,0,0.1,0c0.1,0.1,0.3,0.2,0.4,0.3c0,0,0,0,0.1,0c0.1,0.1,0.3,0.2,0.4,0.3c0,0,0,0,0,0
							c0.6,0.4,1.2,0.7,1.8,0.9c0,0,0.1,0,0.1,0c0.1,0,0.2,0.1,0.3,0.1c0.3,0.1,0.6,0.2,0.9,0.3c0.8,0.2,1.6,0.3,2.4,0.4
							c0.8,0,1.6-0.1,2.4-0.4c0.3-0.1,0.6-0.2,0.9-0.3c0.1,0,0.2-0.1,0.3-0.1c0,0,0.1,0,0.1,0c0.6-0.3,1.2-0.6,1.8-0.9c0,0,0,0,0,0
							c0.1-0.1,0.3-0.2,0.4-0.3c0,0,0,0,0.1,0c0.1-0.1,0.3-0.2,0.4-0.3c0,0,0,0,0.1,0c0,0,0.1-0.1,0.1-0.1h0c0,0,0.1-0.1,0.1-0.1
							c0.1,0,0.1-0.1,0.2-0.1c0,0,0,0,0,0c0.1-0.1,0.2-0.2,0.3-0.3c0,0,0,0,0.1-0.1l0,0c0.3-0.2,0.5-0.5,0.7-0.8
							c0.2-0.2,0.3-0.4,0.5-0.5c0,0,0.1-0.1,0.1-0.1c0.1-0.2,0.2-0.3,0.4-0.5c0,0,0,0,0,0c0,0,0,0,0-0.1c0.1-0.1,0.2-0.2,0.2-0.4
							c0.2-0.3,0.4-0.6,0.6-0.9c0.2-0.4,0.5-0.7,0.8-1c0.3-0.3,0.6-0.6,0.9-0.8c0.3-0.3,0.7-0.5,1-0.7c0.4-0.2,0.7-0.4,1.1-0.5
							c0.4-0.1,0.8-0.3,1.2-0.3c0.4-0.1,0.8-0.1,1.3-0.1c0.1,0,0.1,0,0.2,0c0.2,0,0.5,0,0.8,0c0.3,0,0.6,0,1-0.1c0,0.1,0,0.1,0,0.2
							c0,0.1,0,0.2,0,0.3c-3.1,0.8-5.7,2.8-7.3,5.7c0,0,0,0,0-0.1h0c-0.7,1.2,0,0-0.7,1.2h5.7v20.2c0,0,0,0,0,0
							C128.3,93.5,127.8,95.4,127.9,97.2z M136.7,93.7c0,0.3,0,0.7,0.1,1c0.1,0.3,0.2,0.6,0.3,0.9c0.1,0.3,0.3,0.5,0.5,0.7
							c0.2,0.2,0.4,0.4,0.7,0.5c0.3,0.1,0.6,0.2,0.9,0.3c0.1,0,0.1,0,0.2,0c0.1,0,0.2,0,0.3,0c0.2,0,0.4,0,0.6,0
							c0.2,0,0.4,0,0.7-0.1c0.2,0,0.4-0.1,0.6-0.2c0.1,0,0.2-0.1,0.3-0.1c-1.1,2.2-3.1,1.9-4.2,1.6c-0.3-0.1-0.5-0.2-0.8-0.3
							c0,0-0.1,0-0.1,0c-0.9-0.5-1.6-1.3-1.9-2.2c0.1,2.2,2,4,4.3,4c1.5,0,2.8-0.8,3.6-1.9c0,0,0,0,0,0l0,0l0,0
							c-0.3,2.9-2.9,5.1-5.6,5.1c0,0-0.1,0-0.1,0c-2.1,0-4-1.2-5-2.9l0,0c-0.6-1.1-1.1-2.4-1.2-3.7l0,0c-0.2,0.6-0.3,1.2-0.3,1.8
							c0,1.4,0.5,2.7,1.2,3.8c-0.8-0.6-1.5-1.4-2-2.2c0-0.1-0.1-0.1-0.1-0.2c0-0.1-0.1-0.2-0.1-0.2c0,0,0,0,0-0.1
							c-0.2-0.4-0.3-0.9-0.4-1.3c0,0,0,0,0,0c0-0.1,0-0.2,0-0.3c0,0,0,0,0-0.1c0-0.1,0-0.2,0-0.3c-0.2-2.3,0.8-4.5,2-6
							c0.7-0.9,1.5-1.6,2.4-2.3c0.6-0.5,1.2-0.9,1.8-1.3l2.9-2.1c-0.3,0.4-1.2,1.3-1.3,1.5c-2.5,3.1-6.2,7.5-3.9,11.7
							c0.6,1.1,1.5,1.9,2.6,2.4c0.6,0.3,1.3,0.4,2,0.4c0.3,0,0.6,0,0.9-0.1l0,0c-2.7-0.1-4.8-2.3-4.9-5.1c0-1.4,0.3-2.6,0.9-3.9
							c1.7-3.1,4-5.7,6.2-8.4c1.3-1.5,2.9-3.2,3.2-5.2c0.3-1.8-0.1-3.7-1.3-5.2c-1.2-1.6-3.2-2.5-5.2-2.4c-1.8,0.1-3.8,1-4.6,2.6
							c0.2-0.2,0.3-0.3,0.5-0.4c0.2-0.1,0.4-0.3,0.6-0.4c1.4-0.8,3.4-1,4.9-0.6c1.5,0.4,2.8,1.5,3.5,2.9c0.5,0.9,0.6,1.9,0.4,2.9
							c-0.1,0.3-0.2,0.7-0.3,1c-0.1,0.2-0.2,0.5-0.4,0.7c-0.1,0.2-0.2,0.3-0.4,0.5c-0.3,0.3-0.5,0.5-0.9,0.8
							c-0.2,0.1-0.3,0.2-0.5,0.3c-2.6,0.9-3.2-1.2-3.2-1.2c2.2,0.6,3.2-1,3.2-1c1-1.5,0.6-3.6-1.1-4.5c-1.9-1-4.3-0.2-5.9,0.9
							c-1.1,0.8-1.9,1.8-2.8,2.7c0,0,0,0,0,0V75c0-1.1,0.7-2.6,0.8-2.8c1.3-2.3,3.7-3.8,6.5-3.8c4.2,0,7.6,3.2,8.1,7.3
							c0.3,1.9-0.2,3.8-1,5.5c-1.3,2.8-3.6,5.1-5.6,7.4C138.4,90,136.7,91.7,136.7,93.7z"/>
					</g>
					<g>
						<path class="st18" d="M115.6,92.6v-0.2c0-0.3-0.3-0.6-0.6-0.6v0.1v1.6l2.1-0.7c0,0.4,0.3,0.9,0.6,1.1c0.2,0.2,0.5,0.5,0.5,0.8
							c-0.6,0.2-1.4,0.6-1.5,0.6c-0.1,0.2-0.1,0.5-0.1,0.7c0,0.3,0,0.5,0.1,0.7c-0.4-0.1-0.8-0.2-1.1-0.5c0,0,0-0.5,0-0.5
							c0-0.3-0.3-0.6-0.6-0.6v1.7c0,0,0,0,0,0c0.5,0.4,1.1,0.6,1.7,0.6c0.3,0,0.5,0.2,0.5,0.5c0.1,0,0.2-0.1,0.2-0.2
							c0-0.2,0-0.3-0.1-0.4c0-0.1-0.1-0.3-0.1-0.4c0-0.3,0.1-0.5,0.2-0.7c0.1,0,0.2-0.1,0.3-0.1c0.1,0,0.3,0,0.4,0
							c0.2,0,0.4,0,0.6,0.1c0.1,0,0.2,0.1,0.4,0.1c0.1,0,0.1,0,0.2,0c0.2,0,0.5,0,0.7-0.1c0,0,0.1,0,0.1,0c0,0.1-0.1,0.1-0.1,0.1
							c-0.1,0.1-0.4,0.2-0.6,0.3c-0.1,0-0.2,0-0.3,0c0.2,0.5,0.4,1,0.4,1c0.2,0.1,0.5,0.1,0.7,0.1c0.3,0,0.5,0,0.7-0.1
							c-0.1,0.4-0.2,0.8-0.5,1.1c0,0-0.5,0-0.5,0c-0.3,0-0.6,0.3-0.6,0.6h1.7c0,0,0,0,0,0c0.4-0.5,0.6-1.1,0.6-1.7
							c0-0.3,0.2-0.5,0.5-0.5c0-0.1-0.1-0.2-0.2-0.2c-0.2,0-0.3,0-0.4,0.1c-0.1,0-0.3,0.1-0.4,0.1c-0.3,0-0.5-0.1-0.7-0.2
							c-0.1-0.2-0.1-0.4-0.1-0.7c0-0.2,0-0.4,0.1-0.6l0,0c0,0,0-0.1,0-0.1c0.1,0,0.3,0.1,0.4,0.1c1,0,1.8-0.8,1.8-1.8
							c0-0.3-0.1-0.5-0.2-0.8l-0.2-0.3c-0.3-0.5-0.4-1-0.3-1.6c0-0.5,0.2-1,0.5-1.4c0,0,0,0,0,0c0,0,0,0,0.1,0
							c0.1-0.1,0.2-0.1,0.3-0.2c0.2-0.2,0.3-0.4,0.4-0.7c0,0,0-0.1,0-0.1c0,0,0,0,0-0.1c0-0.1,0-0.1,0-0.2c0,0-0.1,0.1-0.1,0.1
							c-0.1,0-0.1,0.1-0.2,0.1c-0.1,0-0.1,0.1-0.2,0.2c-0.1,0.1-0.1,0.1-0.2,0.2c-0.1,0.1-0.1,0.1-0.2,0.2c0,0,0,0,0,0
							c0,0,0,0,0,0.1l0,0c0,0,0,0,0,0c0,0,0,0,0,0c0,0,0,0,0,0.1c0,0,0,0,0,0c-0.3,0.5-0.5,1.1-0.6,1.7c0,0.6,0.1,1.2,0.4,1.8
							l0.2,0.3c0.1,0.2,0.1,0.4,0.1,0.6c0,0.8-0.6,1.4-1.4,1.4c0,0,0,0,0,0c-0.4,0-0.7-0.2-1-0.5c0-0.1-0.1-0.1-0.1-0.2
							c-0.3-0.4-0.4-0.8-0.4-1.3l0,0v0c0.2,0.2,0.4,0.3,0.5,0.4c0,0,0.1,0,0-0.1c-0.1-0.2-0.1-0.7-0.1-0.9c0-0.2,0.1-0.3,0.2-0.5
							c0,0,0,0.1,0.1,0.3c0,0,0.1,0,0.1,0c0-0.3,0.1-0.5,0.3-0.8c0.1-0.1,0.1-0.1,0.1-0.1c0-0.1,0.1-0.2,0.1-0.2
							c0.1-0.1,0.1-0.2,0.1-0.3l0,0c0,0,0,0,0,0c0,0,0,0,0,0c0,0,0,0,0,0c0,0,0,0,0,0c0,0,0,0,0,0c0,0,0,0,0,0c0,0,0,0,0,0
							c0,0,0,0,0,0c0,0,0,0,0,0c0,0,0,0,0,0c0,0,0,0,0,0c0,0,0,0,0,0c0,0,0,0,0,0c0,0,0,0,0,0c0,0,0,0,0,0c0,0,0,0,0,0c0,0,0,0,0,0
							c0,0,0,0,0,0c0,0,0,0,0,0c0,0,0,0,0,0c0,0,0,0,0,0c0,0,0,0,0,0c0,0,0,0,0,0c0,0,0,0,0,0c0,0,0,0,0,0c0,0,0,0,0,0c0,0,0,0,0,0
							c0,0,0,0,0,0c0,0,0,0,0,0c0,0,0,0,0,0c0,0,0,0,0,0c0,0,0,0,0-0.1c0-0.7-0.3-1.4-0.9-1.8c0,0,0.1,0,0.1,0c0,0,0.1,0,0-0.1
							c-0.5-0.4-1.1-0.6-1.7-0.5c0,0-0.1,0-0.1,0c0,0-0.1,0-0.1,0.1l-0.1,0.2c0,0-0.1,0-0.1,0c-0.2,0-0.4,0.1-0.4,0.3l-0.6,0.3
							c-0.1,0-0.1,0.1-0.1,0.1c0,0,0,0.1,0,0.1c0,0.1,0.1,0.5,0.2,0.5c0,0,0.1,0,0.2-0.1l0,0l0,0c0,0,0,0,0,0l0,0
							c0.2,0,0.4-0.1,0.5,0c0,0,0.1,0.3,0,0.4c0,0-0.1,0-0.3,0l-0.2,0c0,0-0.1,0-0.1,0c0,0-0.1,0.3,0.1,0.4c0.1,0,0.3-0.1,0.5-0.1
							c0,0,0.2,0,0.2,0c0,0,0.1,0,0.1,0c0.2,0,0.4-0.1,0.7-0.2c0,0-0.1,0.2-0.5,0.3c0,0-0.2,0.1-0.3,0.1c0,0-0.1,0-0.1,0
							c-0.3,0.1-0.6,0.3-0.8,0.6c-0.1-0.1-2-0.9-2-0.9l0,0v-0.4c0-0.2-0.1-0.4-0.3-0.5c-0.1,0-0.1-0.1-0.2-0.1v0v1.3l1.6,1.2
							l0.7-0.2c0,0,0.1,0,0.1,0c0,0.1,0,0.1,0,0.1L115.6,92.6z"/>
						<path class="st18" d="M107.2,97.9c-0.2,0.1-0.5,0.1-0.7,0.1c-0.3,0-0.5,0-0.7-0.1c0.1,0.4,0.2,0.8,0.5,1.1c0,0,0.5,0,0.5,0
							c0.3,0,0.6,0.3,0.6,0.6h-1.7c0,0,0,0,0,0c-0.4-0.5-0.6-1.1-0.6-1.7c0-0.3-0.2-0.5-0.5-0.5c0-0.1,0.1-0.2,0.2-0.2
							c0.2,0,0.3,0,0.4,0.1c0.1,0,0.3,0.1,0.4,0.1c0.3,0,0.5-0.1,0.7-0.2c0.1-0.2,0.1-0.4,0.1-0.7c0-0.2,0-0.4-0.1-0.6l0,0
							c0,0,0-0.1,0-0.1c-0.1,0-0.3,0.1-0.4,0.1c-1,0-1.8-0.8-1.8-1.8c0-0.3,0.1-0.5,0.2-0.8l0.2-0.3c0.3-0.5,0.4-1,0.3-1.6
							c0-0.5-0.2-1-0.5-1.4c0,0,0,0,0,0c0,0,0,0-0.1,0c-0.1-0.1-0.2-0.1-0.3-0.2c-0.2-0.2-0.3-0.4-0.4-0.7c0,0,0-0.1,0-0.1
							c0,0,0,0,0-0.1c0-0.1,0-0.1,0-0.2c0,0,0.1,0.1,0.1,0.1c0.1,0,0.1,0.1,0.2,0.1c0.1,0,0.1,0.1,0.2,0.2c0.1,0.1,0.1,0.1,0.2,0.2
							c0.1,0.1,0.1,0.1,0.2,0.2c0,0,0,0,0,0c0,0,0,0,0,0.1l0,0c0,0,0,0,0,0c0,0,0,0,0,0c0,0,0,0,0,0.1c0,0,0,0,0,0
							c0.3,0.5,0.5,1.1,0.6,1.7c0,0.6-0.1,1.2-0.4,1.8l-0.2,0.3c-0.1,0.2-0.1,0.4-0.1,0.6c0,0.8,0.6,1.4,1.4,1.4c0,0,0,0,0,0
							c0.4,0,0.7-0.2,1-0.5c0-0.1,0.1-0.1,0.1-0.2c0.3-0.4,0.4-0.8,0.4-1.3l0,0v0c-0.2,0.2-0.4,0.3-0.5,0.4c0,0-0.1,0,0-0.1
							c0.1-0.2,0.1-0.7,0.1-0.9c0-0.2-0.1-0.3-0.2-0.5c0,0,0,0.1-0.1,0.3c0,0-0.1,0-0.1,0c0-0.3-0.1-0.5-0.3-0.8
							c-0.1-0.1-0.1-0.1-0.1-0.1c0-0.1-0.1-0.2-0.1-0.2c-0.1-0.1-0.1-0.2-0.1-0.3l0,0c0,0,0,0,0,0c0,0,0,0,0,0c0,0,0,0,0,0
							c0,0,0,0,0,0c0,0,0,0,0,0c0,0,0,0,0,0c0,0,0,0,0,0c0,0,0,0,0,0c0,0,0,0,0,0c0,0,0,0,0,0c0,0,0,0,0,0c0,0,0,0,0,0c0,0,0,0,0,0
							c0,0,0,0,0,0c0,0,0,0,0,0c0,0,0,0,0,0c0,0,0,0,0,0c0,0,0,0,0,0c0,0,0,0,0,0c0,0,0,0,0,0c0,0,0,0,0,0c0,0,0,0,0,0c0,0,0,0,0,0
							c0,0,0,0,0,0c0,0,0,0,0,0c0,0,0,0,0,0c0,0,0,0,0,0c0,0,0,0,0,0c0,0,0,0,0,0c0,0,0,0,0,0c0,0,0,0,0,0c0,0,0,0,0-0.1
							c0-0.7,0.3-1.4,0.9-1.8c0,0-0.1,0-0.1,0c0,0-0.1,0,0-0.1c0.5-0.4,1.1-0.6,1.7-0.5c0,0,0.1,0,0.1,0c0,0,0.1,0,0.1,0.1l0.1,0.2
							c0,0,0.1,0,0.1,0c0.2,0,0.4,0.1,0.4,0.3l0.6,0.3c0.1,0,0.1,0.1,0.1,0.1c0,0,0,0.1,0,0.1c0,0.1-0.1,0.5-0.2,0.5
							c0,0-0.1,0-0.2-0.1l0,0l0,0c0,0,0,0,0,0l0,0c-0.2,0-0.4-0.1-0.5,0c0,0-0.1,0.3,0,0.4c0,0,0.1,0,0.3,0l0.2,0c0,0,0.1,0,0.1,0
							c0,0,0.1,0.3-0.1,0.4c-0.1,0-0.3-0.1-0.5-0.1c0,0-0.2,0-0.2,0c0,0-0.1,0-0.1,0c-0.2,0-0.4-0.1-0.7-0.2c0,0,0.1,0.2,0.5,0.3
							c0,0,0.2,0.1,0.3,0.1c0,0,0.1,0,0.1,0c0.3,0.1,0.6,0.3,0.8,0.6c0.1-0.1,2-0.9,2-0.9l0,0v-0.4c0-0.2,0.1-0.4,0.3-0.5
							c0.1,0,0.1-0.1,0.2-0.1v0v1.3l-1.6,1.2l-0.7-0.2c0,0-0.1,0-0.1,0c0,0.1,0,0.1,0,0.1l1.9,0.9v-0.2c0-0.3,0.3-0.6,0.6-0.6v0.1
							v1.6l-2.1-0.7c0,0.4-0.3,0.9-0.6,1.1c-0.2,0.2-0.5,0.5-0.5,0.8c0.6,0.2,1.4,0.6,1.5,0.6c0.1,0.2,0.1,0.5,0.1,0.7
							c0,0.3,0,0.5-0.1,0.7c0.4-0.1,0.8-0.2,1.1-0.5c0,0,0-0.5,0-0.5c0-0.3,0.3-0.6,0.6-0.6v1.7c0,0,0,0,0,0
							c-0.5,0.4-1.1,0.6-1.7,0.6c-0.3,0-0.5,0.2-0.5,0.5c-0.1,0-0.2-0.1-0.2-0.2c0-0.2,0-0.3,0.1-0.4c0-0.1,0.1-0.3,0.1-0.4
							c0-0.3-0.1-0.5-0.2-0.7c-0.1,0-0.2-0.1-0.3-0.1c-0.1,0-0.3,0-0.4,0c-0.1,0-0.2,0-0.3,0l0.1-0.8c0,0,0-0.1-0.1-0.1
							c-0.1,0-0.1,0.1-0.1,0.1L107.2,97.9z"/>
					</g>
					<path class="st18" d="M119.2,78.5c-0.7-1.3-2.1-2.3-3.7-2.3c-0.6-0.3-1.3-0.5-2-0.5c-0.7,0-1.4,0.2-2,0.5c-1.6,0.1-3,1-3.7,2.3
						c-1.1,0.6-1.8,1.7-1.8,3c0,1,0.5,2,1.2,2.6c0.5,1.4,1.8,2.4,3.3,2.6c1.3,0.2,2.3,1.3,2.4,2.7l0,7.4c0,0.3-0.2,1.8-2,2.1
						c-0.2,0-0.4,0-0.4,0c-0.3,0-0.6,0.3-0.6,0.6h1.8h0.8h0.4h1.5v0h1.2h1.8c0-0.3-0.3-0.6-0.6-0.6c0,0-0.3,0-0.4,0
						c-1.9-0.3-2-2-2-2.1l0-7.4c0-1.3,0.9-2.4,2.2-2.7l0.1,0c1.5-0.2,2.8-1.2,3.3-2.6c0.7-0.6,1.2-1.5,1.2-2.6
						C121,80.2,120.3,79,119.2,78.5z M119.1,83.2l-0.2,0.2l-0.1,0.3c-0.4,0.9-1.1,1.6-2,1.8l0,0c0,0-0.7,0.2-0.9,0.3l0,0
						c-0.1,0.1-0.1,0.1-0.2,0.2c0,0,0,0,0,0c-0.1,0-0.1,0.1-0.2,0.1c-0.1,0-0.1,0.1-0.2,0.1c-0.5,0.4-1.2,0.6-1.8,0.6
						c-0.6,0-1.3-0.2-1.8-0.6c-0.1,0-0.1-0.1-0.2-0.1c-0.1,0-0.1-0.1-0.2-0.1c0,0,0,0,0,0c-0.1,0-0.1-0.1-0.2-0.2l0,0
						c-0.2-0.1-0.9-0.3-0.9-0.3l0,0c-0.9-0.3-1.6-0.9-2-1.8l-0.1-0.3l-0.2-0.2c-0.5-0.4-0.8-1.1-0.8-1.7c0-0.8,0.5-1.6,1.2-2
						l0.3-0.2l0.2-0.3c0.5-1,1.6-1.7,2.7-1.7l0.3,0l0.2-0.1c0.5-0.2,0.9-0.4,1.5-0.4c0.5,0,1,0.1,1.5,0.4l0.2,0.1l0.3,0
						c1.2,0,2.2,0.7,2.7,1.7l0.2,0.3l0.3,0.2c0.7,0.4,1.2,1.2,1.2,2C119.9,82.1,119.6,82.8,119.1,83.2z"/>
				</g>
				<path class="st18" d="M120.7,74.1c-0.8,0.5-1.7,0.8-2.5,1.1h7.5v16.3c0,0.9-0.1,1.9-0.3,2.8c-0.2,1-0.6,2-1.1,3
					c-0.1,0.1-0.1,0.2-0.2,0.3c-2.2,3.8-6.2,6.1-10.6,6.1s-8.4-2.3-10.6-6.1c-0.1-0.1-0.1-0.2-0.2-0.3c-0.5-0.9-0.9-1.9-1.1-3
					c-0.2-0.9-0.3-1.9-0.3-2.8V75.1h7.6c-1.1-0.3-2-0.7-2.6-1.1h-6.1v17.4c0,1,0.1,2.1,0.4,3c0.3,1.1,0.7,2.2,1.2,3.2
					c0.1,0.1,0.1,0.2,0.2,0.4c2.3,4,6.6,6.6,11.5,6.6s9.2-2.7,11.5-6.6c0.1-0.1,0.1-0.2,0.2-0.4c0.5-1,1-2.1,1.2-3.2
					c0.2-1,0.4-2,0.4-3V74.1H120.7z"/>
				<polygon class="st18" points="128.8,74.3 128.5,74.1 128,74.6 127.5,74.1 127.2,74.3 127.8,74.9 127.2,75.4 127.5,75.6 
					128,75.1 128.5,75.6 128.8,75.4 128.3,74.9 				"/>
				<polygon class="st18" points="99.6,74.3 99.4,74.1 98.9,74.6 98.3,74.1 98.1,74.3 98.6,74.9 98.1,75.4 98.3,75.6 98.9,75.1 
					99.4,75.6 99.6,75.4 99.1,74.9 				"/>
				<polygon class="st18" points="128.8,86.8 128.5,86.6 128,87.1 127.5,86.6 127.2,86.8 127.8,87.3 127.2,87.9 127.5,88.1 
					128,87.6 128.5,88.1 128.8,87.9 128.3,87.3 				"/>
				<polygon class="st18" points="99.6,86.8 99.4,86.6 98.9,87.1 98.3,86.6 98.1,86.8 98.6,87.3 98.1,87.9 98.3,88.1 98.9,87.6 
					99.4,88.1 99.6,87.9 99.1,87.3 				"/>
				<polygon class="st18" points="102.6,99.8 102.3,99.5 101.8,100 101.3,99.5 101,99.8 101.5,100.3 101,100.8 101.3,101.1 
					101.8,100.6 102.3,101.1 102.6,100.8 102,100.3 				"/>
				<polygon class="st18" points="126,99.8 125.7,99.5 125.2,100 124.7,99.5 124.4,99.8 124.9,100.3 124.4,100.8 124.7,101.1 
					125.2,100.6 125.7,101.1 126,100.8 125.4,100.3 				"/>
				<polygon class="st18" points="114.2,105.5 114,105.2 113.5,105.7 112.9,105.2 112.7,105.5 113.2,106 112.7,106.5 112.9,106.8 
					113.5,106.3 114,106.8 114.2,106.5 113.7,106 				"/>
			</g>
		</g>
	</g>
</g>
</svg>
